<?xml version="1.0" standalone="no"?>
<!DOCTYPE svg PUBLIC "-//W3C//DTD SVG 20010904//EN"
 "http://www.w3.org/TR/2001/REC-SVG-20010904/DTD/svg10.dtd">
<svg version="1.0" xmlns="http://www.w3.org/2000/svg"
 width="260.000000pt" height="142.000000pt" viewBox="0 0 260.000000 142.000000"
 preserveAspectRatio="xMidYMid meet">
<metadata>
Created by potrace 1.10, written by Peter Selinger 2001-2011
</metadata>
<g transform="translate(0.000000,142.000000) scale(0.100000,-0.100000)"
fill="#000000" stroke="none">
<path d="M1440 1048 c-14 -6 -39 -17 -57 -24 -40 -18 -119 -80 -176 -139 -43
-45 -45 -46 -103 -44 -32 1 -134 1 -226 1 -161 -2 -168 -3 -168 -22 0 -19 5
-20 103 -16 56 2 155 8 220 12 118 7 136 2 102 -26 -23 -19 -57 -100 -52 -121
6 -21 -7 -33 -38 -36 -11 -1 -49 -4 -85 -7 -342 -31 -340 -31 -340 -52 0 -13
9 -15 53 -10 68 7 222 22 320 32 l77 7 0 -43 c0 -42 13 -96 31 -132 5 -10 9
-25 9 -34 0 -10 11 -32 25 -50 14 -18 25 -37 25 -42 0 -18 48 -57 104 -85 31
-16 56 -32 56 -36 0 -9 75 -31 125 -35 22 -2 60 0 85 6 25 5 57 12 73 15 15 3
27 11 27 18 0 7 7 18 15 25 40 33 47 73 47 260 0 103 4 182 9 186 6 3 79 6
164 7 136 2 155 4 155 18 0 25 -16 27 -120 19 -52 -5 -122 -10 -154 -12 l-59
-3 -1 68 -1 67 93 0 c71 0 92 3 92 14 0 16 -39 24 -95 20 -121 -10 -125 -9
-125 44 -1 35 -18 72 -35 72 -4 0 -22 16 -41 35 -18 19 -39 35 -48 35 -8 0
-18 5 -21 10 -8 13 -33 12 -65 -2z m83 -40 c15 -7 27 -18 27 -24 0 -7 11 -19
25 -28 14 -9 25 -25 25 -37 0 -11 7 -22 15 -25 8 -4 15 -15 15 -25 0 -16 -8
-18 -69 -17 -37 0 -73 -2 -80 -6 -6 -4 -15 3 -21 18 -11 31 -30 34 -37 6 -5
-18 -11 -20 -60 -15 -30 3 -72 0 -94 -7 -24 -7 -43 -8 -49 -2 -11 11 109 113
162 137 20 10 40 22 43 27 9 14 66 12 98 -2z m-78 -259 c-6 -9 56 -59 73 -59
7 0 12 -4 12 -10 0 -6 -37 -10 -90 -10 -74 0 -91 -3 -99 -17 -7 -12 -11 -13
-11 -5 0 9 -9 12 -27 8 -16 -3 -59 -8 -97 -11 -38 -3 -72 -7 -75 -10 -4 -2
-12 0 -19 4 -10 6 -10 15 0 42 6 19 14 36 17 39 10 9 31 49 31 61 0 31 29 39
144 39 81 0 117 4 123 13 4 7 10 -5 15 -32 4 -24 5 -47 3 -52z m205 39 c0 -43
-7 -51 -58 -68 -38 -12 -47 -12 -70 2 -16 10 -28 27 -30 43 -2 14 -10 29 -18
32 -37 14 -5 23 81 23 l95 0 0 -32z m14 -235 c2 -162 -6 -249 -26 -293 -10
-22 -30 -35 -134 -82 -14 -7 -39 -4 -80 7 -53 15 -141 52 -154 65 -3 3 -17 11
-32 19 -16 8 -35 25 -43 37 -36 55 -55 96 -55 118 0 14 -5 26 -12 28 -6 2 -12
11 -14 20 -1 9 -7 40 -13 69 -6 28 -9 54 -7 56 8 8 158 23 241 24 43 0 87 5
97 10 10 5 58 10 107 10 97 1 121 8 97 28 -10 8 -27 11 -43 7 l-28 -7 25 20
c23 19 59 31 69 24 2 -2 5 -74 5 -160z"/>
</g>
</svg>
